<?xml version="1.0" encoding="UTF-8" standalone="no"?>
<!-- Created with Inkscape (http://www.inkscape.org/) -->

<svg
   xmlns:dc="http://purl.org/dc/elements/1.1/"
   xmlns:cc="http://creativecommons.org/ns#"
   xmlns:rdf="http://www.w3.org/1999/02/22-rdf-syntax-ns#"
   xmlns:svg="http://www.w3.org/2000/svg"
   xmlns="http://www.w3.org/2000/svg"
   xmlns:sodipodi="http://sodipodi.sourceforge.net/DTD/sodipodi-0.dtd"
   xmlns:inkscape="http://www.inkscape.org/namespaces/inkscape"
   width="64px"
   height="64px"
   id="svg3410"
   version="1.1"
   inkscape:version="0.48.4 r9939"
   sodipodi:docname="Nouveau document 1">
  <defs
     id="defs3412" />
  <sodipodi:namedview
     id="base"
     pagecolor="#ffffff"
     bordercolor="#666666"
     borderopacity="1.0"
     inkscape:pageopacity="0.0"
     inkscape:pageshadow="2"
     inkscape:zoom="2.75"
     inkscape:cx="-268.18242"
     inkscape:cy="86.488167"
     inkscape:current-layer="layer1"
     showgrid="true"
     inkscape:document-units="px"
     inkscape:grid-bbox="true"
     inkscape:window-width="1855"
     inkscape:window-height="1056"
     inkscape:window-x="1985"
     inkscape:window-y="24"
     inkscape:window-maximized="1" />
  <metadata
     id="metadata3415">
    <rdf:RDF>
      <cc:Work
         rdf:about="">
        <dc:format>image/svg+xml</dc:format>
        <dc:type
           rdf:resource="http://purl.org/dc/dcmitype/StillImage" />
        <dc:title></dc:title>
      </cc:Work>
    </rdf:RDF>
  </metadata>
  <g
     id="layer1"
     inkscape:label="Layer 1"
     inkscape:groupmode="layer">
    <path
       style="fill:#ec2730"
       inkscape:connector-curvature="0"
       id="path35"
       d="m 20.172716,15.230519 c -0.0561,0.04204 -0.101499,0.09143 -0.150935,0.138368 -0.568841,0.480051 -0.708706,1.255454 -0.343518,1.879466 0.06004,0.118265 0.130766,0.232945 0.22279,0.339497 0.625312,0.720774 1.759524,0.83187 2.529298,0.251999 0.773808,-0.580307 -0.01782,-0.949697 -0.643793,-1.674142 -0.62231,-0.720774 -0.842943,-1.518904 -1.613842,-0.935188 z" />
    <path
       style="fill:#ec2730"
       inkscape:connector-curvature="0"
       id="path37"
       d="m 45.904429,15.697196 c -0.04484,-0.03103 -0.08649,-0.05646 -0.12495,-0.0771 -0.05338,-0.03846 -0.103468,-0.08059 -0.162378,-0.114155 -0.852699,-0.478477 -0.952884,0.342905 -1.469475,1.137976 -0.511901,0.791924 -1.242183,1.257901 -0.391079,1.73428 0.690696,0.387745 1.544051,0.287487 2.117583,-0.186706 0.1348,-0.09073 0.261719,-0.195097 0.366595,-0.32586 0.550736,-0.681615 0.397551,-1.654475 -0.336296,-2.16844 z" />
    <g
       id="g39"
       transform="matrix(0.09380626,0,0,0.08740888,-8.4908118,6.9558965)">
      <path
         style="fill:#ec2730"
         inkscape:connector-curvature="0"
         id="path41"
         d="m 641.749,389.136 c -2.637,0 -5.007,1.076 -6.797,2.758 l -0.348,-0.264 c -45.053,33.485 -101.66,54.291 -165.438,59.317 -9.856,0.744 -19.755,1.189 -29.669,1.189 -75.324,0 -150.324,-22.517 -212.413,-62.919 l -0.037,0.056 c -1.787,-1.664 -4.123,-2.707 -6.766,-2.707 -5.553,0 -10.08,4.495 -10.08,10.072 0,1.934 0.646,3.613 1.609,5.127 C 243.626,492.653 329.911,558 431.646,558 532.987,558 618.988,493.258 651.119,403.026 l -0.055,-0.033 c 0.475,-1.187 0.75,-2.455 0.75,-3.772 0.002,-5.537 -4.511,-10.085 -10.065,-10.085 z" />
      <path
         style="fill:#ec2730"
         inkscape:connector-curvature="0"
         id="path43"
         d="m 576.586,132.986 c 12.997,-10.153 20.387,-25.753 19.465,-42.333 -0.521,-3.856 -1.16,-6.839 -2.607,-10.688 -7.116,-18.809 -24.319,-38.589 -42.155,-34.522 -5.231,1.183 -16.649,24.686 -27.479,49.83 -10.871,-21.599 -46.804,-37.509 -89.563,-37.509 -40.589,0 -75.103,14.363 -87.734,34.383 C 335.431,66.308 323.619,41.76 318.266,40.54 c -17.8,-4.104 -35.059,15.687 -42.168,34.509 -1.449,3.841 -2.041,6.833 -2.612,10.722 -0.903,16.605 6.505,32.196 19.553,42.347 -57.361,42.471 -94.539,110.601 -94.539,187.434 0,9.076 0.657,17.963 1.627,26.721 60.751,51.338 141.061,66.065 222.527,67.051 8.233,-1.305 12.159,-1.675 14.694,-1.881 3.8,-0.404 3.981,-0.404 17.042,-4.496 5.771,-2.044 59.013,-21.848 78.988,-85.29 3.435,-10.968 8.568,-16.528 15.279,-16.528 4.729,0 10.39,3.208 12.18,12.281 3.015,16.085 2.788,47.357 -0.486,72.752 -0.43,3.021 -0.866,5.767 -1.316,8.712 43.55,-11.613 79.951,-30.443 104.712,-58.3 0.615,-6.921 1.039,-13.942 1.039,-21.021 0,-73.954 -34.484,-139.85 -88.2,-182.567 z m -254.71,-25.11 c -8.206,6.634 -20.298,5.363 -26.963,-2.883 -0.982,-1.219 -1.735,-2.531 -2.375,-3.884 -3.893,-7.14 -2.402,-16.01 3.662,-21.502 0.527,-0.536 1.011,-1.102 1.609,-1.583 8.218,-6.678 10.57,2.453 17.205,10.699 6.672,8.288 15.111,12.514 6.862,19.153 z m 178.783,148.129 c -9.182,14.763 -18.706,29.979 -24.205,46.79 -4.179,12.778 -13.738,41.962 -39.659,41.962 -19.071,0 -32.039,-14.16 -38.542,-42.084 -4.759,-19.238 -15.518,-35.27 -25.958,-50.76 -13.297,-19.781 -25.856,-38.467 -25.856,-60.831 v -11.908 c 0,-11.908 9.062,-21.573 20.192,-21.573 8.48,0 15.854,5.486 18.81,13.821 0.107,0.265 0.197,0.511 0.299,0.76 1.724,4.796 2.216,10.284 2.71,15.59 0.223,2.498 0.461,5.024 0.816,7.401 -1.769,-0.039 -3.55,0.076 -5.339,0.55 -10.267,2.741 -16.33,13.247 -13.63,23.459 2.749,10.243 10.016,4.251 20.289,1.526 2.617,-0.697 5.164,-1.114 7.475,-1.516 5.241,13.927 9.639,28.667 13.625,42.16 5.181,17.61 10.508,35.603 16.244,45.994 2.658,-0.565 5.564,-0.882 8.631,-0.882 3.727,0 7.18,0.5 10.267,1.311 4.284,-8.859 8.162,-23.415 11.961,-37.646 4.388,-16.389 9.215,-34.434 16.074,-50.98 2.37,0.417 4.988,0.839 7.7,1.56 10.262,2.725 17.569,8.717 20.32,-1.526 2.675,-10.212 -3.411,-20.718 -13.654,-23.459 -1.676,-0.442 -3.346,-0.572 -4.998,-0.566 0.224,-2.059 0.386,-4.192 0.51,-6.411 0.323,-5.289 0.641,-10.742 2.322,-16.1 0.198,-0.661 0.455,-1.259 0.746,-1.829 3.107,-7.979 10.318,-13.216 18.592,-13.216 11.138,0 20.196,9.666 20.196,21.519 0,0.194 0,0.394 -0.012,0.585 l 0.029,11.338 c 10e-4,23.485 -12.607,43.663 -25.955,64.961 z m 71.133,-144.104 c -6.114,5.424 -15.211,6.571 -22.574,2.136 -9.073,-5.45 -1.288,-10.782 4.169,-19.841 5.507,-9.096 6.575,-18.492 15.665,-13.019 0.629,0.384 1.162,0.866 1.731,1.306 0.41,0.236 0.854,0.527 1.332,0.882 7.822,5.88 9.455,17.01 3.585,24.809 -1.118,1.495 -2.471,2.689 -3.908,3.727 z" />
    </g>
  </g>
</svg>
